<svg xmlns="http://www.w3.org/2000/svg" xmlns:xlink="http://www.w3.org/1999/xlink" id="Layer_1" x="0px" y="0px" viewBox="0 0 985.7 412.9" style="enable-background:new 0 0 985.7 412.9;" xml:space="preserve"> <g> <g> <g> <g> <radialGradient id="SVGID_2_" cx="251.8896" cy="869.4497" r="313.5199" gradientTransform="matrix(1 0 0 1 0 -664.6808)" gradientUnits="userSpaceOnUse"> <stop offset="0" style="stop-color:#8600A2"/> <stop offset="0" style="stop-color:#6200EE"/> <stop offset="1" style="stop-color:#34008B"/> <stop offset="1" style="stop-color:#09009B"/> </radialGradient> <path id="SVGID_1_" style="fill:url(#SVGID_2_);" d="M250,29.2c14.3,0,27.8,5.6,38,15.7l123.6,123.6 c10.1,10.1,15.7,23.6,15.7,38s-5.6,27.8-15.7,38L288,368c-10.1,10.1-23.6,15.7-38,15.7c-14.3,0-27.8-5.6-38-15.7L88.4,244.4 c-10.1-10.1-15.7-23.6-15.7-38s5.6-27.8,15.7-38L212,44.9C222.2,34.8,235.7,29.2,250,29.2 M250,14.1c-17.6,0-35.2,6.7-48.6,20.1 L77.7,157.8c-26.9,26.9-26.9,70.4,0,97.3l123.6,123.6c13.4,13.4,31,20.1,48.6,20.1s35.2-6.7,48.6-20.1l123.6-123.6 c26.9-26.9,26.9-70.4,0-97.3L298.6,34.2C285.2,20.8,267.6,14.1,250,14.1L250,14.1z"/> </g> </g> </g> <g> <g> <g> <radialGradient id="SVGID_3_" cx="251.8896" cy="869.4497" r="313.5199" gradientTransform="matrix(1 0 0 1 0 -664.6808)" gradientUnits="userSpaceOnUse"> <stop offset="0" style="stop-color:#8600A2"/> <stop offset="0" style="stop-color:#6200EE"/> <stop offset="1" style="stop-color:#34008B"/> <stop offset="1" style="stop-color:#09009B"/> </radialGradient> <path id="SVGID_317_" style="fill:url(#SVGID_3_);" d="M250,62.1c8.6,0,16.8,3.4,22.9,9.5l112,112c12.6,12.6,12.6,33.1,0,45.8 l-112,112c-6.1,6.1-14.2,9.5-22.9,9.5s-16.8-3.4-22.9-9.5l-112-112c-12.6-12.6-12.6-33.1,0-45.8l112-112 C233.2,65.5,241.4,62.1,250,62.1 M250,47c-12.1,0-24.3,4.6-33.6,13.9l-112,112c-18.5,18.5-18.5,48.6,0,67.1l112,112 c9.3,9.3,21.4,13.9,33.6,13.9c12.1,0,24.3-4.6,33.6-13.9l112-112c18.5-18.5,18.5-48.6,0-67.1l-112-112 C274.3,51.6,262.1,47,250,47L250,47z"/> </g> </g> </g> <g> <radialGradient id="SVGID_4_" cx="251.8896" cy="869.4497" r="313.5199" gradientTransform="matrix(1 0 0 1 0 -664.6808)" gradientUnits="userSpaceOnUse"> <stop offset="0" style="stop-color:#8600A2"/> <stop offset="0" style="stop-color:#6200EE"/> <stop offset="1" style="stop-color:#34008B"/> <stop offset="1" style="stop-color:#09009B"/> </radialGradient> <path style="fill:url(#SVGID_4_);" d="M315.2,253.5L315.2,253.5c-4.2,0-7.6-3.4-7.6-7.6l0.4-77.2c0-3.1,1.9-5.8,4.7-7 c2.8-1.2,6.1-0.5,8.2,1.7l38.2,38.6c2.9,3,2.9,7.7-0.1,10.7c-3,2.9-7.7,2.9-10.7-0.1L322.9,187l-0.3,58.9 C322.8,250.1,319.4,253.5,315.2,253.5z"/> </g> <g> <radialGradient id="SVGID_5_" cx="251.8896" cy="869.4497" r="313.5199" gradientTransform="matrix(1 0 0 1 0 -664.6808)" gradientUnits="userSpaceOnUse"> <stop offset="0" style="stop-color:#8600A2"/> <stop offset="0" style="stop-color:#6200EE"/> <stop offset="1" style="stop-color:#34008B"/> <stop offset="1" style="stop-color:#09009B"/> </radialGradient> <path style="fill:url(#SVGID_5_);" d="M184.4,254.6c-2,0-4-0.8-5.4-2.3l-38.2-39c-2.9-3-2.9-7.8,0.1-10.7s7.8-2.9,10.7,0.1 l25.4,25.9l0.6-59.7c0-4.1,3.4-7.5,7.6-7.5h0.1c4.2,0,7.5,3.5,7.5,7.6l-0.8,78c0,3.1-1.9,5.8-4.7,6.9 C186.3,254.4,185.3,254.6,184.4,254.6z"/> </g> <g> <radialGradient id="SVGID_6_" cx="251.8896" cy="869.4497" r="313.5199" gradientTransform="matrix(1 0 0 1 0 -664.6808)" gradientUnits="userSpaceOnUse"> <stop offset="0" style="stop-color:#8600A2"/> <stop offset="0" style="stop-color:#6200EE"/> <stop offset="1" style="stop-color:#34008B"/> <stop offset="1" style="stop-color:#09009B"/> </radialGradient> <path style="fill:url(#SVGID_6_);" d="M216.2,293.2L216.2,293.2c-4.2,0-7.6-3.4-7.6-7.6l0.8-156.3c0-4.2,3.4-7.5,7.6-7.5l0,0 c4.2,0,7.5,3.4,7.5,7.6l-0.8,156.3C223.7,289.8,220.3,293.2,216.2,293.2z"/> </g> <g> <radialGradient id="SVGID_7_" cx="251.8896" cy="869.4497" r="313.5199" gradientTransform="matrix(1 0 0 1 0 -664.6808)" gradientUnits="userSpaceOnUse"> <stop offset="0" style="stop-color:#8600A2"/> <stop offset="0" style="stop-color:#6200EE"/> <stop offset="1" style="stop-color:#34008B"/> <stop offset="1" style="stop-color:#09009B"/> </radialGradient> <path style="fill:url(#SVGID_7_);" d="M248.8,326.2c-2,0-4-0.8-5.4-2.3l-19.1-19.5c-2.9-3-2.9-7.8,0.1-10.7s7.8-2.9,10.7,0.1 l6.2,6.3L242,98.7c0-3.7,0-5.7,2.4-7.9c0.9-0.9,5.6-4.7,11.3,0.8c0.6,0.6,1.4,1.4,2.4,2.4c1.7,1.7,3.9,4,6.8,6.9 c4.9,5,9.7,10.1,9.7,10.1c2.9,3,2.8,7.8-0.2,10.7c-3,2.9-7.8,2.8-10.7-0.2c-2.2-2.3-4.4-4.6-6.5-6.8 c-0.2,52.8-0.7,202.3-0.7,204.1c0,3.1-1.9,5.8-4.7,7C250.7,326,249.8,326.2,248.8,326.2z"/> </g> <g> <radialGradient id="SVGID_8_" cx="251.8896" cy="869.4497" r="313.5199" gradientTransform="matrix(1 0 0 1 0 -664.6808)" gradientUnits="userSpaceOnUse"> <stop offset="0" style="stop-color:#8600A2"/> <stop offset="0" style="stop-color:#6200EE"/> <stop offset="1" style="stop-color:#34008B"/> <stop offset="1" style="stop-color:#09009B"/> </radialGradient> <path style="fill:url(#SVGID_8_);" d="M283,293.6c-4.2,0-7.5-3.4-7.6-7.5c-0.3-52.1,0-156.9,0-158c0-4.2,3.4-7.5,7.6-7.5l0,0 c4.2,0,7.6,3.4,7.5,7.6c0,1.1-0.3,105.9,0,157.9C290.6,290.2,287.2,293.6,283,293.6L283,293.6z"/> </g> <g> <radialGradient id="SVGID_9_" cx="251.8896" cy="869.4497" r="313.5199" gradientTransform="matrix(1 0 0 1 0 -664.6808)" gradientUnits="userSpaceOnUse"> <stop offset="0" style="stop-color:#8600A2"/> <stop offset="0" style="stop-color:#6200EE"/> <stop offset="1" style="stop-color:#34008B"/> <stop offset="1" style="stop-color:#09009B"/> </radialGradient> <path style="fill:url(#SVGID_9_);" d="M297.3,151.6h-27.4c-4.2,0-7.6-3.4-7.6-7.6s3.4-7.6,7.6-7.6h27.4c4.2,0,7.6,3.4,7.6,7.6 S301.5,151.6,297.3,151.6z"/> </g> </g> <g> <path d="M518.1,224.9l0.1,0.7L518.1,224.9c5.5,0.1,9.6-0.6,12.2-2.2c2.6-1.6,4.5-3.6,5.6-6c1.8-4.3,2.5-9.6,1.9-15.7 c-0.2-4.2-0.1-8.5,0.3-12.8c0.8-4.2,2.7-7.1,5.6-8.6c2.9-1.5,5.8-1.2,8.7,1s4.7,6.8,5.4,13.9c0.1,1.4,0.3,2.8,0.6,4.2 c0.5,2.9,0.9,5.7,1.1,8.4c0.2,3.4,0.7,6.4,1.3,9c0.7,2.6,2,4.8,3.9,6.3c1.9,1.6,4.7,2.4,8.2,2.4v25c-6.8,0-13.1-1.4-18.6-4.3 c-5.5-3.2-9-8.3-10.4-15.3c-2.1,5.7-5.4,10.3-9.8,13.8c-4.4,3.6-9.5,5.5-15.3,5.7v0.1h-6.1c-9.7,0-17.2-1.8-22.5-5.4 c-5.3-3.6-9.1-8.4-11.4-14.4s-3.6-12.8-4.1-20.4c-0.4-7.6-0.6-15.4-0.4-23.6c0-0.5,0-1.1,0-1.7l0.4-46c0.4-5.4,2.4-9.3,6.2-11.6 c3.8-2.3,7.6-2.4,11.3-0.3c3.7,2.1,5.7,7.2,6,15.1l-1,65.2c0.4,7.1,2.4,11.9,5.8,14.4c3.5,2.5,7.6,3.8,12.6,3.7L518.1,224.9 L518.1,224.9z M553.1,151.2c8.2,0.8,14.3,2.3,18.1,4.5c3.9,2.2,4.7,4.4,2.6,6.6c-2.1,2.2-8,3.8-17.7,4.9c-5.1,0.7-11.5,1.4-19,2.2 c-7.5,0.8-14.3,1.2-20.3,1.2c-0.7,0-1.3,0-1.9,0c-3.3,0.1-6-0.2-8-0.9c-2-0.8-3-2.8-3-6.2c0.3-4.2,2.5-7.2,6.5-9s8.8-2.9,14.2-3.3 c5.4-0.4,10.4-0.5,14.9-0.3c1.3,0,2.5,0,3.6,0c0.5,0,1,0,1.5,0c2.7-0.1,4-0.1,3.9-0.1C548.5,150.7,550,150.9,553.1,151.2z M572.8,224.9c2.1,0,4.1,0.5,6.1,1.6s3.6,2.6,4.7,4.6c1.1,2,1.7,4.1,1.7,6.2c0,2.2-0.6,4.3-1.7,6.3c-1.1,2-2.6,3.5-4.6,4.6 s-4,1.7-6.2,1.7s-4.3-0.6-6.3-1.7c-2-1.1-3.5-2.6-4.6-4.6s-1.7-4.1-1.7-6.3c0-2.1,0.6-4.2,1.7-6.2c1.1-2,2.7-3.6,4.7-4.6 C568.6,225.5,570.7,224.9,572.8,224.9z"/> <path d="M631.2,225.1c0.5-0.1,1.1-0.1,1.7-0.1c2.1,0,4.2,0.5,6.2,1.6s3.5,2.6,4.7,4.6c1.1,2,1.7,4.1,1.7,6.2c0,2.2-0.6,4.3-1.7,6.3 c-1.1,2-2.6,3.5-4.6,4.6s-4.1,1.7-6.3,1.7h-59.1v-0.1c-0.5,0.1-1,0.1-1.5,0.1c-2.1,0-4.2-0.6-6.2-1.7c-2-1.1-3.5-2.6-4.6-4.6 s-1.7-4.1-1.7-6.3c0-2.1,0.6-4.2,1.7-6.2c1.1-2,2.6-3.6,4.6-4.6c2-1.1,4-1.6,6.2-1.6c0.6,0,1.1,0,1.7,0.1H631.2z"/> <path d="M691,225.1c0.5-0.1,1.1-0.1,1.7-0.1c2.1,0,4.2,0.5,6.2,1.6s3.5,2.6,4.7,4.6c1.1,2,1.7,4.1,1.7,6.2c0,2.2-0.6,4.3-1.7,6.3 c-1.1,2-2.6,3.5-4.6,4.6s-4.1,1.7-6.3,1.7h-59.1v-0.1c-0.5,0.1-1,0.1-1.5,0.1c-2.1,0-4.2-0.6-6.2-1.7c-2-1.1-3.5-2.6-4.6-4.6 s-1.7-4.1-1.7-6.3c0-2.1,0.6-4.2,1.7-6.2c1.1-2,2.6-3.6,4.6-4.6c2-1.1,4-1.6,6.2-1.6c0.6,0,1.1,0,1.7,0.1H691z"/> <path d="M692.4,250c-2.1,0-4.2-0.6-6.2-1.7c-2-1.1-3.5-2.6-4.6-4.6s-1.7-4.1-1.7-6.3c0-2.1,0.6-4.2,1.7-6.2c1.1-2,2.6-3.6,4.6-4.6 c2-1.1,4-1.6,6.2-1.6h0.1c5.8,0.1,10-0.8,12.6-2.5s4.2-4,5-6.7c0.8-2.8,1.2-5.6,1.4-8.7c0.2-2.9,0.7-5.7,1.4-8.3 c0.7-2.6,2.2-4.6,4.4-6.1c3.2-1.8,6.4-2.2,9.6-1.3c3.2,0.9,5.5,3.1,6.9,6.5c0.9,3.1,1.3,6.6,1.3,10.5c0.1,2.9,0.3,5.9,0.8,8.9 c1.3,6.2,3.2,8.7,5.6,7.6c2.4-1.1,4.6-4.1,6.7-8.9c2-4.8,3.1-9.6,3.4-14.4c0.3-5,2.1-8.5,5.3-10.6c3.2-2.1,6.6-2,10,0.1 c3.4,2.1,5.6,6.9,6.6,14.3l0.1,7.8c0.3,8.2,1.5,12.1,3.7,11.6s4.7-4.2,7.5-11c1.8-4.6,2.6-9.5,2.4-14.8c0.2-7.6,2.2-12.8,6-15.6 c3.7-2.7,7.7-2.8,11.9-0.2c4.2,2.6,6.8,8,8,16.2c0.2,1.5,0.4,3.1,0.6,4.5c0.2,6.3,1.4,11.3,3.5,15.2s5.6,5.8,10.4,5.8h0.2 c2.1,0,4.2,0.5,6.2,1.6s3.5,2.6,4.7,4.6c1.1,2,1.7,4.1,1.7,6.2c0,2.2-0.6,4.3-1.7,6.3c-1.1,2-2.6,3.5-4.6,4.6s-4.1,1.7-6.3,1.7 c-6.2,0.1-11.1-0.2-14.7-1.1c-4.6-1.2-8.4-4.7-11.6-10.5c-4.5,7.2-10.8,11.1-19,11.6c-8.2,0.6-15.6-2.3-22.3-8.5 c-3.1,4.3-6.9,7-11.5,8.1s-9.2,0.6-13.7-1.3c-4.5-1.9-8.1-5.2-10.9-9.9c-5.1,5.4-9.9,8.7-14.6,10c-4.6,1.3-10.3,1.8-17,1.5h-0.1 V250z"/> <path d="M845.7,268.7c8.2,0.8,14.3,2.3,18.1,4.4c3.9,2.1,4.7,4.3,2.6,6.5c-2.1,2.2-8,3.9-17.7,5c-5.1,0.7-11.4,1.4-18.9,2.2 c-7.5,0.8-14.3,1.2-20.3,1.2c-0.6,0-1.2,0-1.9,0c-3.3,0.1-6-0.3-8-1c-2-0.7-3-2.8-3-6.2c0.4-4.2,2.6-7.2,6.6-9 c4-1.8,8.7-2.9,14.2-3.3c5.4-0.3,10.4-0.5,14.9-0.4c1.4,0.1,2.6,0.1,3.7,0.1c0.4,0,0.9,0,1.4,0c2.7-0.1,4-0.1,3.9-0.1 C841.1,268.3,842.6,268.4,845.7,268.7z M827.5,250v-25h1.5c7.7-0.7,13.1-4.2,16.2-10.6c3-6.4,3.7-13,1.8-19.8 c-2.2-7.9-2.5-13.2-1-16.1c1.5-2.9,4-3.7,7.2-2.5c3.3,1.2,6.4,3.9,9.4,8.1s4.8,9.5,5.6,15.9c0.8,8.2-0.1,16-2.8,23.3 c-2.6,7.3-7.1,13.4-13.3,18.3C845.8,246.4,837.6,249.2,827.5,250z"/> <path d="M911.8,242.6c-7.1-0.1-13.5-2.1-19.4-6.1c-5.8-4-9.8-9.6-11.9-17c-1.3-5.6-1-11.2,1-16.9s5.4-10.6,10.2-14.7 c4.8-4.1,10.9-6.5,18.1-7.1c11-0.6,19.3,2.6,25.1,9.5c4.9,6.1,7.3,13,7.3,20.6c0.5,12.5-1.6,24.3-6.2,35.5 c-4.7,11.2-12.7,19.9-24.1,26.1c-4.1,2.1-8.5,3.8-13.2,4.9s-9.3,1.4-14,0.8c-1.8-0.2-3.9-0.8-6.3-1.9c-2.4-1-3.9-2.6-4.3-4.6 c-0.1-1.7,0.8-3.2,2.5-4.6c1.8-1.4,3.8-2.5,6-3.4s3.9-1.6,5.2-1.9C898.8,258.5,906.7,252.1,911.8,242.6z M915.3,224.8 c5.1-0.4,8.3-2.4,9.5-6.1c1.2-3.7,0.6-7.3-1.8-10.8c-2.4-3.5-6.6-5.2-12.6-5.1c-3,0.2-5.5,1.4-7.6,3.6c-2,2.2-2.8,5.1-2.4,8.6 c0.5,2.7,2.2,5,5.1,6.9C908.5,223.9,911.8,224.8,915.3,224.8z"/> </g> </svg>